o object
v -64 -37.999992 38
v -64 -7.999996 8.000002
v -64 -37.999992 -37.999996
v 64 40 -40
v 64 -39.999992 39.999996
v 64 -39.999992 -40
v -8 40 -40
v -62 -39.999992 40
v -62 -39.999992 -39.999996
v -64 38 -37.999996
v -62 40 -39.999996
v -64 38 38
v -62 40 40
v -64 8.000004 -7.999998
v -64 -7.999996 -7.999998
v -18 40 -40
v -22 40 -6
v -22 40 -4
v -14 40 -6
v -12 40 -6
v -16 40 -6
v 64 40 39.999996
v -10 40 -18
v -8 40 -18
v 8 40 -6
v -4 40 -18
v 48 40 -4
vn -0.9238795325112867 -0.3826834323650898 0
vn -1 0 0
vn -0.9554981164649295 -0.26385351910781396 -0.131926759553907
vn 0.5345224838248488 0.8017837257372732 -0.2672612419124244
vn 0.7071067811865475 -0.7071067811865475 0
vn 0.40824827771960404 -0.4082483023441053 -0.8164965813597341
vn -0.000000005444399587167003 0.8574929221456615 -0.5144957613723308
vn -0.5054494651244235 -0.8628562094610167 0
vn -0.3790871150373198 -0.48376911735291556 -0.7888348371543076
vn -0.9554981164649295 0.13192675955390695 -0.2638535191078139
vn -0.4090102666803121 0.851101340935431 -0.3291460302176091
vn -0.8628562094610167 0.5054494651244235 0
vn -0.38268343236508984 0.9238795325112867 0
vn -1 0 0
vn -1 0 0
vn -0.000000014373989461449097 0.9486832972599445 -0.31622776838854566
vn 0 1 0
vn 0 1 0
vn 0 1 0
vn 0 1 0
vn 0 1 0
vn 0.7071067811865475 0.7071067811865475 0
vn 0 1 0
vn 0 1 0
vn 0 1 0
vn 0 1 0
vn 0 1 0
f 3//3 1//1 2//2
f 6//6 4//4 5//5
f 6//6 7//7 4//4
f 9//9 8//8 3//3
f 11//11 9//9 10//10
f 13//13 11//11 12//12
f 8//8 9//9 5//5
f 10//10 14//14 12//12
f 3//3 2//2 15//15
f 17//17 16//16 11//11
f 18//18 11//11 13//13
f 18//18 17//17 11//11
f 16//16 19//19 20//20
f 16//16 21//21 19//19
f 16//16 17//17 21//21
f 5//5 4//4 22//22
f 23//23 16//16 20//20
f 23//23 24//24 7//7
f 23//23 7//7 16//16
f 25//25 4//4 7//7
f 26//26 7//7 24//24
f 25//25 7//7 26//26
f 4//4 27//27 22//22
f 4//4 25//25 27//27
f 7//7 6//6 9//9
f 16//16 9//9 11//11
f 9//9 16//16 7//7
f 3//3 8//8 1//1
f 10//10 9//9 3//3
f 12//12 11//11 10//10
f 5//5 9//9 6//6
f 15//15 10//10 3//3
f 14//14 10//10 15//15
