o object
v -64 -37.999992 38
v -64 -7.999996 8.000002
v -64 -37.999992 -37.999996
v -6 40 0
v -8 40 -4
v -8 40 -2
v 64 40 -40
v 64 -39.999992 39.999996
v 64 -39.999992 -40
v 4 44 4
v 4 40 -4
v 4 40 4
v 2 40 -6
v 8 44 -6
v 8 40 -6
v -12 40 -6
v -10 40 -16
v -10 40 -18
v -14 40 2
v -14 40 -3.999999
v -16 40 -3.999999
v -12 40 -2
v -8 44 -2
v -22 40 -6
v -16 44 -6
v -16 40 -6
v 6 40 -4
v 6 44 4
v 6 40 4
v -12 44 0.000001
v -12 44 -2
v -14 44 -6
v -20 44 4
v -20 40 -4
v -20 40 4
v -4 40 -2
v 0 44 -2
v 0 40 -2
v 6 44 -4
v 2 44 -6
v 4 44 -4
v -8 44 -6
v -4 40 -16
v -6 40 -8
v 0 40 -6
v -6 40 -6
v 0 44 -6
v 8 40 -4
v 0 44 4
v 0 40 4
v 2 44 -4
v 2 40 -4
v -8 38 -8
v -8 40 -8
v -6 40 -16
v -6 38 -8
v 8 44 -4
v -18 44 -3.999999
v -18 40 -3.999999
v -22 44 -4
v -22 40 -4
v -22 44 -6
v -8 40 -16
v -12 44 -4
v -12 40 -4
v 0 40 -4
v -4 44 -4
v -4 40 -4
v -4 44 -2
v -2 44 0
v -20 44 -4
v -8 44 0
v -8 40 0
v 0 44 -4
v -8 40 -6
v -8 44 -4
v -16 44 -3.999999
v -14 40 -6
v -18 44 4
v -18 40 2
v -6 44 0
v -62 -39.999992 40
v -62 -39.999992 -39.999996
v -62 40 -39.999996
v -64 38 38
v -62 40 40
v -72 8.000004 8.000002
v -72 -7.999996 -7.999998
v -72 -7.999996 8.000002
v -72 8.000004 -7.999998
v -64 -7.999996 -7.999998
v -64 8.000004 -7.999998
v -64 8.000004 8.000002
v -64 38 -37.999996
v 16 40 40
v 48 40 -4
v -18 40 -40
v 64 40 39.999996
v -14 44 4
v -8 40 -40
v -4 40 -18
v -6 44 -6
v -6 38 -16
v -8 38 -16
vn -0.9238795325112867 -0.3826834323650898 0
vn -0.8944271909999159 -0.4472135954999579 0
vn -0.9523198086911443 -0.30510159287434485 0
vn -0.31622776601683794 0.9486832980505138 0
vn 0.18257418583505536 0.9128709291752768 0.3651483716701107
vn 0.5345224838248488 0.8017837257372732 -0.2672612419124244
vn 0.5547001962252291 0.8320502943378437 0
vn 0.7071067811865475 -0.7071067811865475 0
vn 0.7071067811865475 -0.7071067811865475 0
vn -0.8944271909999159 0.4472135954999579 0
vn -0.5773502691896258 0.5773502691896258 0.5773502691896258
vn -0.4472135954999579 0.8944271909999159 0
vn -0.2672612419124244 0.8017837257372732 -0.5345224838248488
vn 0.3333333333333333 0.6666666666666666 -0.6666666666666666
vn 0.31234752377721214 0.9370425713316364 -0.15617376188860607
vn 0 0.8574929257125441 -0.5144957554275265
vn 0 1 0
vn 0 1 0
vn -0.7071067811865476 0.7071067811865475 0
vn -0.7071067811865475 0.7071067811865475 0
vn 0.18257418583505536 0.9128709291752768 0.3651483716701107
vn 0.3333333333333333 0.6666666666666666 -0.6666666666666666
vn 0.3333333333333333 0.6666666666666666 -0.6666666666666666
vn -0.2672612419124244 0.8017837257372732 -0.5345224838248488
vn 0.2672612419124244 0.8017837257372732 -0.5345224838248488
vn 0.5345224838248488 0.8017837257372732 -0.2672612419124244
vn 0.8164965809277261 0.4082482904638631 0.4082482904638631
vn 0.7071067811865475 0.7071067811865475 0
vn 0.31622776601683794 0.9486832980505138 0
vn 0 1 0
vn 0.5345224838248488 0.8017837257372732 -0.2672612419124244
vn -0.5570860145311556 0.7427813527082074 -0.3713906763541037
vn -0.7071067811865475 0.7071067811865475 0
vn -0.6666666666666666 0.3333333333333333 0.6666666666666666
vn -0.4472135954999579 0.8944271909999159 0
vn 0.3333333333333333 0.6666666666666666 -0.6666666666666666
vn 0.3333333333333333 0.6666666666666666 -0.6666666666666666
vn 0.3651483716701107 0.9128709291752768 -0.18257418583505536
vn 0.2182178902359924 0.8728715609439696 0.4364357804719848
vn -0.5345224838248488 0.8017837257372732 -0.2672612419124244
vn -0.23570226039551587 0.9428090415820635 0.23570226039551587
vn 0.3333333333333333 0.6666666666666666 -0.6666666666666666
vn 0 1 0
vn -0.18257418583505536 0.9128709291752768 -0.3651483716701107
vn 0.3651483716701107 0.9128709291752768 -0.18257418583505536
vn -0.4082482904638631 0.8164965809277261 -0.4082482904638631
vn 0.3333333333333333 0.6666666666666666 -0.6666666666666666
vn 0.2672612419124244 0.8017837257372732 0.5345224838248488
vn 0.8944271909999159 0.4472135954999579 0
vn 0.7071067811865475 0.7071067811865475 0
vn -0.4082482904638631 0.4082482904638631 0.8164965809277261
vn -0.4364357804719848 0.8728715609439696 0.2182178902359924
vn 0.6666666666666666 0.3333333333333333 -0.6666666666666666
vn 0.23570226039551587 0.9428090415820635 -0.23570226039551587
vn -0.8944271909999159 0.4472135954999579 0
vn -0.6666666666666666 0.6666666666666666 -0.3333333333333333
vn 0.8164965809277261 0.4082482904638631 0.4082482904638631
vn 0.4082482904638631 0.8164965809277261 0.4082482904638631
vn 0.5773502691896257 0.5773502691896257 0.5773502691896258
vn -0.4082482904638631 0.4082482904638631 0.8164965809277261
vn -0.4364357804719848 0.8728715609439696 0.2182178902359924
vn -0.6666666666666666 0.6666666666666666 -0.3333333333333333
vn 0.8944271909999159 0.4472135954999579 0
vn 0.2672612419124244 0.8017837257372732 0.5345224838248488
vn 0.8164965809277261 0.4082482904638631 0.4082482904638631
vn 0.2182178902359924 0.8728715609439696 0.4364357804719848
vn 0.2672612419124244 0.8017837257372732 0.5345224838248488
vn 0.8164965809277261 0.4082482904638631 0.4082482904638631
vn 0.4364357804719848 0.8728715609439696 -0.2182178902359924
vn 0 1 0
vn -0.23570226039551587 0.9428090415820635 0.23570226039551587
vn 0.8944271909999159 0.4472135954999579 0
vn 0.7071067811865475 0.7071067811865475 0
vn 0.8164965809277261 0.4082482904638631 0.4082482904638631
vn 0.4364357804719848 0.8728715609439696 -0.2182178902359924
vn 0.8164965809277261 0.4082482904638631 0.4082482904638631
vn 0.8164965809277261 0.4082482904638631 0.4082482904638631
vn -0.23570226039551587 0.9428090415820635 -0.23570226039551587
vn 0.7071067811865475 0.7071067811865475 0
vn 0.7071067811865476 0.7071067811865475 0
vn -0.7071067811865475 0.7071067811865475 0
vn -0.5054494651244235 -0.8628562094610167 0
vn -0.2527247325622118 -0.9675382212353982 0
vn -0.30510159287434485 0.9523198086911443 0
vn -0.9238795325112867 0.3826834323650898 0
vn -0.2527247325622118 0.9675382212353982 0
vn -0.7071067811865475 0.7071067811865475 0
vn -0.8164965809277261 -0.4082482904638631 -0.4082482904638631
vn -0.4472135954999579 -0.8944271909999159 0
vn -0.4082482904638631 0.4082482904638631 -0.8164965809277261
vn -0.7276068751089989 -0.48507125007266594 -0.48507125007266594
vn -0.8017837257372732 0.5345224838248488 -0.2672612419124244
vn -0.7071067811865475 0.7071067811865475 0
vn -0.9822902577808736 0.18736555037889127 0
vn 0 1 0
vn 0 1 0
vn 0 1 0
vn 0.4472135954999579 0.8944271909999159 0
vn -0.7071067811865475 0.7071067811865475 0
vn 0 1 0
vn 0 1 0
vn -0.30151134457776363 0.9045340337332909 -0.30151134457776363
vn -0.7071067811865475 0.7071067811865475 0
vn 0.4472135954999579 0.8944271909999159 0
f 3//3 1//1 2//2
f 6//6 4//4 5//5
f 9//9 7//7 8//8
f 12//12 10//10 11//11
f 15//15 13//13 14//14
f 18//18 16//16 17//17
f 21//21 19//19 20//20
f 6//6 22//22 23//23
f 26//26 24//24 25//25
f 29//29 27//27 28//28
f 32//32 30//30 31//31
f 35//35 33//33 34//34
f 38//38 36//36 37//37
f 41//41 39//39 40//40
f 42//42 16//16 32//32
f 45//45 43//43 44//44
f 45//45 46//46 47//47
f 27//27 48//48 39//39
f 50//50 38//38 49//49
f 52//52 11//11 51//51
f 54//54 44//44 53//53
f 44//44 55//55 56//56
f 48//48 15//15 57//57
f 59//59 21//21 58//58
f 61//61 34//34 60//60
f 24//24 61//61 62//62
f 54//54 53//53 63//63
f 65//65 5//5 64//64
f 68//68 66//66 67//67
f 70//70 37//37 69//69
f 71//71 25//25 62//62
f 73//73 6//6 72//72
f 36//36 68//68 69//69
f 66//66 45//45 74//74
f 22//22 65//65 31//31
f 5//5 75//75 76//76
f 21//21 26//26 77//77
f 20//20 32//32 78//78
f 13//13 52//52 40//40
f 58//58 79//79 80//80
f 4//4 81//81 46//46
f 83//83 82//82 3//3
f 86//86 84//84 85//85
f 82//82 83//83 8//8
f 89//89 87//87 88//88
f 88//88 90//90 91//91
f 88//88 91//91 89//89
f 93//93 92//92 87//87
f 94//94 92//92 85//85
f 3//3 2//2 91//91
f 29//29 95//95 96//96
f 29//29 48//48 27//27
f 24//24 97//97 84//84
f 61//61 84//84 86//86
f 61//61 24//24 84//84
f 97//97 78//78 16//16
f 78//78 21//21 20//20
f 78//78 26//26 21//21
f 29//29 96//96 48//48
f 38//38 12//12 11//11
f 38//38 11//11 52//52
f 97//97 26//26 78//78
f 97//97 24//24 26//26
f 45//45 52//52 13//13
f 36//36 66//66 68//68
f 66//66 52//52 45//45
f 61//61 35//35 34//34
f 38//38 52//52 66//66
f 38//38 66//66 36//36
f 12//12 38//38 50//50
f 86//86 35//35 61//61
f 4//4 6//6 73//73
f 5//5 4//4 46//46
f 5//5 46//46 75//75
f 22//22 5//5 65//65
f 6//6 5//5 22//22
f 8//8 7//7 98//98
f 11//11 10//10 41//41
f 14//14 13//13 40//40
f 18//18 97//97 16//16
f 54//54 16//16 75//75
f 17//17 54//54 63//63
f 17//17 16//16 54//54
f 21//21 59//59 80//80
f 21//21 80//80 19//19
f 23//23 22//22 31//31
f 25//25 24//24 62//62
f 28//28 27//27 39//39
f 64//64 76//76 42//42
f 64//64 42//42 32//32
f 30//30 32//32 99//99
f 23//23 30//30 72//72
f 32//32 31//31 64//64
f 31//31 30//30 23//23
f 34//34 33//33 71//71
f 37//37 36//36 69//69
f 28//28 41//41 10//10
f 14//14 39//39 57//57
f 39//39 41//41 28//28
f 41//41 40//40 51//51
f 40//40 39//39 14//14
f 16//16 42//42 75//75
f 32//32 16//16 78//78
f 98//98 96//96 95//95
f 15//15 7//7 100//100
f 15//15 100//100 101//101
f 7//7 96//96 98//98
f 96//96 15//15 48//48
f 43//43 45//45 13//13
f 43//43 13//13 15//15
f 101//101 43//43 15//15
f 7//7 15//15 96//96
f 44//44 43//43 55//55
f 75//75 44//44 54//54
f 44//44 75//75 46//46
f 44//44 46//46 45//45
f 47//47 46//46 102//102
f 39//39 48//48 57//57
f 49//49 38//38 37//37
f 51//51 11//11 41//41
f 53//53 44//44 56//56
f 56//56 55//55 103//103
f 57//57 15//15 14//14
f 58//58 21//21 77//77
f 60//60 34//34 71//71
f 62//62 61//61 60//60
f 63//63 53//53 104//104
f 64//64 5//5 76//76
f 67//67 66//66 74//74
f 47//47 67//67 74//74
f 102//102 67//67 47//47
f 102//102 69//69 67//67
f 81//81 69//69 102//102
f 37//37 70//70 49//49
f 70//70 69//69 81//81
f 58//58 71//71 33//33
f 58//58 33//33 79//79
f 25//25 58//58 77//77
f 71//71 62//62 60//60
f 71//71 58//58 25//25
f 72//72 6//6 23//23
f 69//69 68//68 67//67
f 74//74 45//45 47//47
f 31//31 65//65 64//64
f 76//76 75//75 42//42
f 77//77 26//26 25//25
f 32//32 20//20 19//19
f 99//99 32//32 19//19
f 40//40 52//52 51//51
f 56//56 104//104 53//53
f 103//103 104//104 56//56
f 58//58 80//80 59//59
f 46//46 81//81 102//102
f 3//3 82//82 1//1
f 85//85 84//84 94//94
f 8//8 83//83 9//9
f 88//88 87//87 90//90
f 91//91 90//90 92//92
f 89//89 91//91 2//2
f 87//87 92//92 90//90
f 91//91 94//94 3//3
f 85//85 92//92 93//93
f 92//92 94//94 91//91
