o object
v -64 -37.999992 38
v -64 -7.999996 8.000002
v -64 -37.999992 -37.999996
v 64 40 -40
v 64 -39.999992 39.999996
v 64 -39.999992 -40
v 4 44 4
v 4 40 -4
v 4 40 4
v -8 44 4
v -14 40 4
v -8 40 4
v -8 40 0
v -12 44 0.000001
v -12 40 0.000001
v -14 40 2
v -14 40 -3.999999
v -16 40 -3.999999
v 6 40 -4
v 6 44 4
v 6 40 4
v -12 44 -2
v -14 44 -6
v -20 44 4
v -20 40 -4
v -20 40 4
v -8 40 2
v 0 40 -2
v 0 44 4
v 0 40 4
v -6 40 4
v -6 40 2
v -2 44 2
v -2 40 2
v -12 40 2
v -8 44 2
v -12 44 2
v -18 40 4
v -6 44 2
v -2 44 0
v -2 40 0
v -18 44 4
v -18 40 2
v -18 44 -3.999999
v -62 -39.999992 40
v -62 -39.999992 -39.999996
v -62 40 -39.999996
v -64 38 38
v -62 40 40
v -72 8.000004 8.000002
v -72 -7.999996 -7.999998
v -72 -7.999996 8.000002
v -64 -7.999996 -7.999998
v -64 8.000004 -7.999998
v -64 8.000004 8.000002
v -64 38 -37.999996
v 16 40 40
v 48 40 -4
v 8 40 -4
v -22 40 -4
v -6 40 0
v 64 40 39.999996
v 4 44 -4
v -14 44 4
v -8 44 0
v -18 40 -3.999999
v 6 44 -4
v -8 44 -2
v -20 44 -4
v 0 44 -2
v -6 44 4
v -72 8.000004 -7.999998
vn -0.9822902577808736 -0.18736555037889127 0
vn -0.9045340337332909 -0.30151134457776363 0.30151134457776363
vn -0.9238795325112867 -0.3826834323650898 0
vn 0.8944271909999159 0.4472135954999579 0
vn 0.7071067811865475 -0.7071067811865475 0
vn 0.7071067811865475 -0.7071067811865475 0
vn -0.6666666666666666 0.3333333333333333 0.6666666666666666
vn -0.8944271909999159 0.4472135954999579 0
vn -0.23570226039551587 0.9428090415820635 0.23570226039551587
vn 0.5773502691896258 0.5773502691896258 0.5773502691896258
vn -0.2672612419124244 0.8017837257372732 0.5345224838248488
vn 0.30151134457776363 0.9045340337332909 0.30151134457776363
vn 0.00000017677669529663136 0.7071067811865475 0.7071067811865255
vn 0.1825742740792437 0.9128709139607617 0.36514836558429337
vn 0.6666667129629614 0.6666666296296327 0.333333314814806
vn -0.6000000000000001 0.8 0
vn -0.7071067811865475 0.7071067811865475 0
vn 0 1 0
vn 0.8944271909999159 0.4472135954999579 0
vn 0.6666666666666666 0.6666666666666666 0.3333333333333333
vn 0.2182178902359924 0.8728715609439696 0.4364357804719848
vn 0 1 0
vn -0.7071067811865475 0.7071067811865475 0
vn -0.5773502691896258 0.5773502691896258 0.5773502691896258
vn -0.8944271909999159 0.4472135954999579 0
vn -0.23570226039551587 0.9428090415820635 0.23570226039551587
vn 0.31234752377721214 0.9370425713316364 -0.15617376188860607
vn 0.7071067811865475 0.7071067811865475 0
vn 0.48507125007266594 0.7276068751089989 0.48507125007266594
vn 0.30151134457776363 0.9045340337332909 0.30151134457776363
vn -0.4082482904638631 0.8164965809277261 0.4082482904638631
vn -0.2182178902359924 0.8728715609439696 -0.4364357804719848
vn -0.2672612419124244 0.8017837257372732 -0.5345224838248488
vn -0.8164965809277261 0.4082482904638631 -0.4082482904638631
vn 0.408248290463863 0.408248290463863 -0.8164965809277261
vn 0.4082482904638631 0.4082482904638631 -0.8164965809277261
vn 0.5345224838248487 0.8017837257372732 -0.2672612419124244
vn 0.2182178902359924 0.8728715609439696 0.4364357804719848
vn -0.8164965809277261 0.4082482904638631 -0.4082482904638631
vn -0.7071067811865475 0.7071067811865475 0
vn -0.4472135954999579 0.8944271909999159 0
vn 0.8164965809277261 0.4082482904638631 0.4082482904638631
vn 0.7071067811865476 0.7071067811865476 0
vn 0.7071067811865475 0.7071067811865475 0
vn -0.5054494651244235 -0.8628562094610167 0
vn -0.2527247325622118 -0.9675382212353982 0
vn -0.5054494651244235 0.8628562094610167 0
vn -0.9523198086911443 0.30510159287434485 0
vn -0.1873655503788913 0.9822902577808736 0
vn -0.6666666666666666 0.6666666666666666 0.3333333333333333
vn -0.8944271909999159 -0.4472135954999579 0
vn -0.3333333333333333 -0.6666666666666666 0.6666666666666666
vn -0.4472135954999579 -0.8944271909999159 0
vn -0.7071067811865475 0.7071067811865475 0
vn -0.8017837257372732 0.2672612419124244 0.5345224838248488
vn -0.9238795325112867 0.3826834323650898 0
vn 0 1 0
vn 0 1 0
vn 0 1 0
vn 0 1 0
vn 0 1 0
vn 0.4472135954999579 0.8944271909999159 0
vn -0.4472135954999579 0.8944271909999159 0
vn -0.5345224838248488 0.8017837257372732 0.2672612419124244
vn 0.00000017677669529663136 0.7071067811865475 0.7071067811865255
vn 0.7071067811865475 0.7071067811865475 0
vn 0.7071067811865475 0.7071067811865475 0
vn 0 1 0
vn -0.7071067811865475 0.7071067811865475 0
vn 0.7071067811865475 0.7071067811865475 0
vn -0.4082482904638631 0.8164965809277261 0.4082482904638631
vn -0.7071067811865475 0.7071067811865475 0
f 3//3 1//1 2//2
f 6//6 4//4 5//5
f 9//9 7//7 8//8
f 12//12 10//10 11//11
f 15//15 13//13 14//14
f 18//18 16//16 17//17
f 21//21 19//19 20//20
f 23//23 14//14 22//22
f 26//26 24//24 25//25
f 12//12 27//27 10//10
f 30//30 28//28 29//29
f 30//30 29//29 31//31
f 34//34 32//32 33//33
f 27//27 35//35 36//36
f 35//35 15//15 37//37
f 26//26 38//38 24//24
f 32//32 31//31 39//39
f 41//41 34//34 40//40
f 9//9 21//21 7//7
f 44//44 42//42 43//43
f 46//46 45//45 3//3
f 49//49 47//47 48//48
f 45//45 46//46 5//5
f 52//52 50//50 51//51
f 51//51 53//53 52//52
f 55//55 54//54 50//50
f 56//56 54//54 48//48
f 2//2 55//55 52//52
f 55//55 1//1 48//48
f 3//3 2//2 53//53
f 2//2 1//1 55//55
f 26//26 49//49 57//57
f 21//21 57//57 58//58
f 21//21 59//59 19//19
f 60//60 47//47 49//49
f 21//21 58//58 59//59
f 28//28 9//9 8//8
f 9//9 57//57 21//21
f 30//30 57//57 9//9
f 60//60 26//26 25//25
f 9//9 28//28 30//30
f 49//49 26//26 60//60
f 38//38 16//16 43//43
f 57//57 38//38 26//26
f 31//31 57//57 30//30
f 11//11 16//16 38//38
f 57//57 11//11 38//38
f 12//12 57//57 31//31
f 41//41 32//32 34//34
f 57//57 12//12 11//11
f 27//27 15//15 35//35
f 27//27 13//13 15//15
f 31//31 27//27 12//12
f 61//61 32//32 41//41
f 32//32 27//27 31//31
f 61//61 13//13 27//27
f 61//61 27//27 32//32
f 5//5 4//4 62//62
f 8//8 7//7 63//63
f 11//11 10//10 64//64
f 14//14 13//13 65//65
f 18//18 66//66 43//43
f 18//18 43//43 16//16
f 20//20 19//19 67//67
f 37//37 64//64 10//10
f 37//37 10//10 36//36
f 14//14 23//23 64//64
f 14//14 64//64 37//37
f 68//68 14//14 65//65
f 22//22 14//14 68//68
f 25//25 24//24 69//69
f 10//10 27//27 36//36
f 20//20 63//63 7//7
f 67//67 63//63 20//20
f 62//62 58//58 57//57
f 4//4 58//58 62//62
f 29//29 28//28 70//70
f 31//31 29//29 71//71
f 33//33 32//32 39//39
f 71//71 33//33 39//39
f 29//29 33//33 71//71
f 29//29 40//40 33//33
f 70//70 40//40 29//29
f 44//44 69//69 24//24
f 44//44 24//24 42//42
f 36//36 35//35 37//37
f 37//37 15//15 14//14
f 24//24 38//38 42//42
f 39//39 31//31 71//71
f 40//40 34//34 33//33
f 23//23 17//17 16//16
f 64//64 16//16 11//11
f 64//64 23//23 16//16
f 7//7 21//21 20//20
f 42//42 38//38 43//43
f 44//44 43//43 66//66
f 3//3 45//45 1//1
f 48//48 47//47 56//56
f 5//5 46//46 6//6
f 51//51 50//50 72//72
f 52//52 53//53 2//2
f 50//50 54//54 72//72
f 48//48 54//54 55//55
f 52//52 55//55 50//50
