o object
v -64 -37.999992 38
v -64 -7.999996 8.000002
v -64 -37.999992 -37.999996
v 64 40 -40
v 64 -39.999992 39.999996
v 64 -39.999992 -40
v -62 -39.999992 40
v -62 -39.999992 -39.999996
v -62 40 -39.999996
v -64 38 38
v -62 40 40
v -64 8.000004 -7.999998
v -64 38 -37.999996
v -64 8.000004 8.000002
v 16 40 40
v -20 40 4
v 48 40 -4
v 6 40 4
v -22 40 -4
v 4 40 4
v 0 40 4
v -18 40 4
v -6 40 4
v -14 40 4
v -8 40 4
v 64 40 39.999996
vn -0.9822902577808736 -0.18736555037889127 0
vn -1 0 0
vn -0.8628562094610167 -0.5054494651244235 0
vn 0.8944271909999159 0.4472135954999579 0
vn 0.7071067811865475 -0.7071067811865475 0
vn 0.7071067811865475 -0.7071067811865475 0
vn -0.5054494651244235 -0.8628562094610167 0
vn -0.2527247325622118 -0.9675382212353982 0
vn -0.5054494651244235 0.8628562094610167 0
vn -0.9523198086911443 0.30510159287434485 0
vn -0.1873655503788913 0.9822902577808736 0
vn -1 0 0
vn -0.9238795325112867 0.3826834323650898 0
vn -1 0 0
vn 0 1 0
vn 0 1 0
vn 0 1 0
vn 0 1 0
vn 0 1 0
vn 0 1 0
vn 0 1 0
vn 0 1 0
vn 0 1 0
vn 0 1 0
vn 0 1 0
vn 0.4472135954999579 0.8944271909999159 0
f 3//3 1//1 2//2
f 6//6 4//4 5//5
f 8//8 7//7 3//3
f 11//11 9//9 10//10
f 7//7 8//8 5//5
f 13//13 12//12 10//10
f 14//14 1//1 10//10
f 2//2 1//1 14//14
f 16//16 11//11 15//15
f 18//18 15//15 17//17
f 19//19 9//9 11//11
f 20//20 15//15 18//18
f 21//21 15//15 20//20
f 11//11 16//16 19//19
f 15//15 22//22 16//16
f 23//23 15//15 21//21
f 15//15 24//24 22//22
f 25//25 15//15 23//23
f 15//15 25//25 24//24
f 5//5 4//4 26//26
f 26//26 17//17 15//15
f 4//4 17//17 26//26
f 3//3 7//7 1//1
f 10//10 9//9 13//13
f 5//5 8//8 6//6
f 10//10 12//12 14//14
