o object
v 64 40 32
v -64 38 32
v -64 38 16
v -64 -37.999992 16
v -64 -37.999992 32
v -62 -39.99999199999999 16
v -62 40 16
v -62 40 32
v -62 -39.99999199999999 32
v 64 40 16
v 64 -39.999992 32
v 64 -39.999992 16
vn 0.8944271909999159 0.4472135954999579 0
vn -0.9238795325112867 0.3826834323650898 0
vn -0.9238795325112867 0.3826834323650898 0
vn -0.862856209461016 -0.5054494651244246 0
vn -0.9675382212353981 -0.2527247325622123 0
vn -0.2527247325622113 -0.9675382212353985 0
vn -0.3826834323650898 0.9238795325112867 0
vn -0.3826834323650898 0.9238795325112867 0
vn -0.5054494651244226 -0.8628562094610175 0
vn 0.4472135954999579 0.8944271909999159 0
vn 0.4472135954999578 -0.8944271909999159 0
vn 0.8944271909999159 -0.4472135954999579 0
f 8//8 1//1 10//10
f 5//5 2//2 3//3
f 4//4 9//9 5//5
f 6//6 11//11 9//9
f 7//7 3//3 8//8
f 10//10 7//7 8//8
f 4//4 6//6 9//9
f 12//12 10//10 1//1
f 1//1 11//11 12//12
f 6//6 12//12 11//11
f 3//3 4//4 5//5
f 2//2 8//8 3//3
