o object
v 64 32.00000040000002 -32
v 64 -39.999992 -40
v 64 40 -40
v -8 40 -40
v -62 -39.999992 -32
v -63.84615394082841 -38.15383805917159 -32
v -62 -39.999992 -39.999996
v -64 38 -37.999996
v -62 40 -39.999996
v -52.58823889273398 40 -32
v -18 40 -40
v -15.09090909090909 40 -32
v -8.727272727272727 40 -32
v -4.235294117647059 40 -32
v -64 -37.999992 -37.999996
v -64 38 -32
v 64 -39.999992 -32.00000000000001
v -49.40000504000052 -39.999992 -32.00000000000001
v -64 -31.999996399999755 -32
v -8 40 -32
v -53.111114567901616 40 -32
v -64 -37.999992 -32.000000000000014
v -18.941176470588236 40 -32
v -6.545454545454545 40 -32
v -17.529411764705884 40 -32
v -62.2051281130835 39.7948718869165 -32
v -62 40 -32
v 52.70103051431607 40 -32
v 50.82352941176471 40 -32
v -64 -34.086951482041364 -32
v -64 32.00000439999976 -32
v -17.058823529411764 40 -32
v -16.58823529411765 40 -32
v 63.99999999999997 37.95098834466405 -32
v 64 40 -32
v -64 -27.514683212187162 -32
v 64 12.09569653588516 -32
v 60.44444444444444 40 -32
v -64 28.800006319999884 -32
v 64 -39.44904860377358 -32.00000000000001
v 64 10.35338954985275 -32
v 64 11.911576246207197 -32
v 64 9.780352917362038 -32
v 64 9.889940929053132 -32
v 64 9.454402588927522 -32
v 64 10.00000296296296 -32
vn 1 0.0000000000000015919882936349764 0.000000000000001591988214035558
vn 0.9622504479139702 -0.19245009294303397 -0.19245009019374662
vn 0.5070925528371106 0.8451542547285162 -0.16903085094570275
vn -0.000000005444399587167003 0.8574929221456615 -0.5144957613723308
vn -0.38268343236508984 -0.9238795325112867 0
vn -0.7071067811865475 -0.7071067811865475 0
vn -0.4520877577832181 -0.5457181870050366 -0.7055553271250087
vn -0.976227011881184 0.09693381378397811 -0.19386762756795622
vn -0.46410000030861875 0.8403273592726744 -0.28010911975755753
vn 0 1 0
vn -0.000000011024346649159022 0.970142499788662 -0.24253562646301266
vn 0 1 0
vn 0 1 0
vn 0 1 0
vn -0.9554981164649295 -0.26385351910781396 -0.13192675955390698
vn -0.8628562094610167 0.5054494651244235 0
vn 0.7071067811865476 -0.7071067811865475 0
vn 0 -1 0
vn -1 0 0
vn 0 1 0
vn 0 1 0
vn -0.9238795325112867 -0.38268343236508984 0
vn 0 1 0
vn 0 1 0
vn 0 1 0
vn -0.7071067811865476 0.7071067811865476 0
vn -0.38268343236508984 0.9238795325112867 0
vn 0 1 0
vn 0 1 0
vn -1 0 0
vn -1 0 0
vn 0 1 0
vn 0 1 0
vn 1 -0.000000000000004547485534165773 0.000000000000002387982321053337
vn 0.7071067811865525 0.7071067811865427 0
vn -1 0 0
vn 1 0 0
vn 0 1 0
vn -1 0 0
vn 1 0 0
vn 1 0 0
vn 1 0 0
vn 1 0 0
vn 1 0 0
vn 1 0 0
vn 1 0 0
f 3//3 1//1 2//2
f 4//4 3//3 2//2
f 7//7 5//5 6//6
f 7//7 8//8 9//9
f 9//9 10//10 11//11
f 11//11 12//12 13//13
f 4//4 14//14 3//3
f 2//2 7//7 4//4
f 7//7 9//9 11//11
f 11//11 4//4 7//7
f 7//7 15//15 8//8
f 8//8 16//16 9//9
f 2//2 17//17 18//18
f 15//15 19//19 8//8
f 4//4 13//13 20//20
f 9//9 21//21 10//10
f 15//15 6//6 22//22
f 11//11 10//10 23//23
f 15//15 7//7 6//6
f 4//4 11//11 13//13
f 4//4 24//24 14//14
f 11//11 23//23 25//25
f 9//9 26//26 27//27
f 29//29 28//28 3//3
f 15//15 30//30 19//19
f 7//7 2//2 18//18
f 9//9 27//27 21//21
f 8//8 31//31 16//16
f 11//11 32//32 33//33
f 35//35 34//34 3//3
f 11//11 25//25 32//32
f 7//7 18//18 5//5
f 19//19 36//36 8//8
f 1//1 37//37 2//2
f 9//9 16//16 26//26
f 3//3 14//14 29//29
f 15//15 22//22 30//30
f 3//3 38//38 35//35
f 8//8 39//39 31//31
f 11//11 33//33 12//12
f 4//4 20//20 24//24
f 17//17 2//2 40//40
f 42//42 41//41 2//2
f 44//44 43//43 2//2
f 40//40 2//2 45//45
f 44//44 2//2 46//46
f 46//46 2//2 41//41
f 38//38 3//3 28//28
f 45//45 2//2 43//43
f 39//39 8//8 36//36
f 42//42 2//2 37//37
f 1//1 3//3 34//34
