o object
v -6 40 0
v -8 40 -4
v -8 40 -2
v 2 40 -6
v 8 44 -6
v 8 40 -6
v -14 40 -3.999999
v -16 40 -3.999999
v -12 40 -2
v -8 44 -2
v -22 40 -6
v -16 44 -6
v -16 40 -6
v -12 44 -2
v -14 44 -6
v -4 40 -2
v 0 44 -2
v 0 40 -2
v 6 44 -4
v 2 44 -6
v 4 44 -4
v -12 40 -6
v -8 44 -6
v -6 40 -8
v 0 40 -6
v -6 40 -6
v 0 44 -6
v 8 40 -4
v 6 40 -4
v 4 40 -4
v 2 44 -4
v 2 40 -4
v -8 38 -8
v -8 40 -8
v -6 40 -16
v -6 38 -8
v 8 44 -4
v -18 44 -3.999999
v -18 40 -3.999999
v -20 40 -4
v -22 44 -4
v -22 40 -4
v -22 44 -6
v -8 40 -16
v -12 44 -4
v -12 40 -4
v 0 40 -4
v -4 44 -4
v -4 40 -4
v -4 44 -2
v -20 44 -4
v -8 44 0
v -8 40 0
v 0 44 -4
v -8 40 -6
v -8 44 -4
v -16 44 -3.999999
v -14 40 -6
v -6 44 0
v -72 8.000004 -7.999998
v -64 -7.999996 -7.999998
v -72 -7.999996 -7.999998
v -72 -7.999996 0
v 6 40 0
v 4 40 0
v -20 40 0
v -18 40 0
v 6 44 0
v 64 40 0
v 48 40 -4
v -6 44 -6
v 0 44 0
v -6 38 -16
v -8 38 -16
v -20 44 0
v -14 40 0
v -64 8.000004 -7.999998
v -72 8.000004 0
v -62 40 -16
v -64 -37.999992 -16
v -64 -37.999992 0
v -64 38 0
v -64 38 -16
v -62 -39.99999199999999 -16
v -62 40 0
v -62 -39.99999199999999 0
v 64 40 -16
v 64 -39.99999199999999 0
v 64 -39.99999199999999 -16
v -64 -7.999996 0
v -64 8.000004 0
v -14 44 0
v 4 44 0
v -18 44 0
v 0 40 0
vn -0.31622776601683794 0.9486832980505138 0
vn 0.18257418583505536 0.9128709291752768 0.3651483716701107
vn 0.5345224838248488 0.8017837257372732 -0.2672612419124244
vn -0.2672612419124244 0.8017837257372732 -0.5345224838248488
vn 0.3333333333333333 0.6666666666666666 -0.6666666666666666
vn 0.3651483716701107 0.9128709291752768 -0.18257418583505536
vn -0.7071067811865475 0.7071067811865475 0
vn 0.2182178902359924 0.8728715609439696 0.4364357804719848
vn 0.3333333333333333 0.6666666666666666 -0.6666666666666666
vn 0.4082482904638631 0.4082482904638631 -0.8164965809277261
vn -0.3333333333333333 0.6666666666666666 -0.6666666666666666
vn 0.2672612419124244 0.8017837257372732 -0.5345224838248488
vn 0.5345224838248488 0.8017837257372732 -0.2672612419124244
vn 0.4364357804719848 0.8728715609439696 -0.2182178902359924
vn -0.6396021490668312 0.6396021490668312 -0.42640143271122083
vn 0.3333333333333333 0.6666666666666666 -0.6666666666666666
vn 0.3333333333333333 0.6666666666666666 -0.6666666666666666
vn 0.3651483716701107 0.9128709291752768 -0.18257418583505536
vn 0.2182178902359924 0.8728715609439696 0.4364357804719848
vn -0.5345224838248488 0.8017837257372732 -0.2672612419124244
vn -0.4364357804719848 0.8728715609439696 0.2182178902359924
vn 0 0.8 -0.6000000000000001
vn 0.3333333333333333 0.6666666666666666 -0.6666666666666666
vn -0.15617376188860607 0.9370425713316364 -0.31234752377721214
vn 0.4364357804719848 0.8728715609439696 -0.2182178902359924
vn -0.4082482904638631 0.8164965809277261 -0.4082482904638631
vn 0.3333333333333333 0.6666666666666666 -0.6666666666666666
vn 0.2672612419124244 0.8017837257372732 0.5345224838248488
vn 0.8164965809277261 0.4082482904638631 0.4082482904638631
vn -0.3333333333333333 0.6666666666666666 0.6666666666666666
vn -0.4082482904638631 0.4082482904638631 0.8164965809277261
vn -0.4364357804719848 0.8728715609439696 0.2182178902359924
vn 0.6666666666666666 0.3333333333333333 -0.6666666666666666
vn 0.30151134457776363 0.9045340337332909 -0.30151134457776363
vn -0.7071067811865475 0.7071067811865475 0
vn -0.6666666666666666 0.6666666666666666 -0.3333333333333333
vn 0.8164965809277261 0.4082482904638631 0.4082482904638631
vn 0.21821789023599236 0.8728715609439696 0.4364357804719848
vn 0.6666666666666666 0.6666666666666666 0.33333333333333337
vn -0.4082482904638631 0.4082482904638631 0.8164965809277261
vn -0.4082482904638631 0.4082482904638631 0.8164965809277261
vn -0.4364357804719848 0.8728715609439696 0.2182178902359924
vn -0.6666666666666666 0.6666666666666666 -0.3333333333333333
vn 0.7071067811865475 0.7071067811865475 0
vn 0.2672612419124244 0.8017837257372732 0.5345224838248488
vn 0.8164965809277261 0.4082482904638631 0.4082482904638631
vn 0.2182178902359924 0.8728715609439696 0.4364357804719848
vn 0.2672612419124244 0.8017837257372732 0.5345224838248488
vn 0.8164965809277261 0.4082482904638631 0.4082482904638631
vn 0.5345224838248488 0.8017837257372732 -0.2672612419124244
vn -0.4364357804719848 0.8728715609439696 0.2182178902359924
vn 0.7071067811865475 0.7071067811865475 0
vn 0.7071067811865475 0.7071067811865475 0
vn 0.8164965809277261 0.4082482904638631 0.4082482904638631
vn 0.4364357804719848 0.8728715609439696 -0.2182178902359924
vn 0.8164965809277261 0.4082482904638631 0.4082482904638631
vn 0.8164965809277261 0.4082482904638631 0.4082482904638631
vn -0.23570226039551587 0.9428090415820635 -0.23570226039551587
vn -0.5547001962252291 0.8320502943378437 0
vn -0.6666666666666665 0.33333333333333326 -0.6666666666666666
vn -0.7276068751089989 -0.4850712500726659 -0.48507125007266594
vn -0.5773502691896257 -0.5773502691896257 -0.5773502691896258
vn -0.7071067811865475 -0.7071067811865475 0
vn 0.31622776601683794 0.9486832980505138 0
vn -0.7071067811865475 0.7071067811865475 0
vn -0.7071067811865475 0.7071067811865475 0
vn 0.7071067811865475 0.7071067811865475 0
vn 0.7071067811865475 0.7071067811865475 0
vn 0.7071067811865475 0.7071067811865475 0
vn 0 1 0
vn -0.30151134457776363 0.9045340337332909 -0.30151134457776363
vn 0.8944271909999159 0.4472135954999579 0
vn -0.7071067811865475 0.7071067811865475 0
vn 0.4472135954999579 0.8944271909999159 0
vn -0.4472135954999579 0.8944271909999159 0
vn -0.5547001962252291 0.8320502943378436 0
vn -0.8728715609439696 0.4364357804719847 -0.2182178902359924
vn -0.4472135954999579 0.8944271909999159 0
vn -0.10484544307503862 0.9944885283734544 0
vn -0.952319808691144 -0.3051015928743455 0
vn -0.9675382212353981 -0.2527247325622123 0
vn -0.9675382212353982 0.25272473256221173 0
vn -0.9238795325112867 0.3826834323650898 0
vn -0.25272473256221123 -0.9675382212353985 0
vn -0.3826834323650898 0.9238795325112867 0
vn -0.5054494651244225 -0.8628562094610175 0
vn 0.31622776601683794 0.9486832980505138 0
vn 0.4472135954999579 -0.8944271909999159 0
vn 0.8944271909999159 -0.4472135954999579 0
vn -0.7071067811865476 -0.7071067811865475 0
vn -0.7071067811865476 0.7071067811865475 0
vn -0.4472135954999579 0.8944271909999159 0
vn -0.7071067811865475 0.7071067811865475 0
vn 0.8944271909999159 0.4472135954999579 0
vn 0.7071067811865475 0.7071067811865475 0
f 3//3 1//1 2//2
f 6//6 4//4 5//5
f 39//39 76//76 8//8
f 3//3 9//9 10//10
f 13//13 11//11 12//12
f 92//92 14//14 15//15
f 18//18 16//16 17//17
f 21//21 19//19 20//20
f 23//23 22//22 15//15
f 4//4 24//24 25//25
f 25//25 26//26 27//27
f 29//29 28//28 19//19
f 32//32 30//30 31//31
f 34//34 24//24 33//33
f 24//24 35//35 36//36
f 28//28 6//6 37//37
f 39//39 8//8 38//38
f 42//42 40//40 41//41
f 11//11 42//42 43//43
f 34//34 33//33 44//44
f 46//46 2//2 45//45
f 49//49 47//47 48//48
f 59//59 17//17 50//50
f 51//51 12//12 43//43
f 53//53 3//3 52//52
f 16//16 49//49 50//50
f 47//47 25//25 54//54
f 9//9 46//46 14//14
f 2//2 55//55 56//56
f 8//8 13//13 57//57
f 7//7 15//15 58//58
f 4//4 32//32 20//20
f 1//1 59//59 26//26
f 62//62 60//60 61//61
f 90//90 63//63 61//61
f 29//29 64//64 28//28
f 58//58 79//79 13//13
f 58//58 8//8 7//7
f 58//58 13//13 8//8
f 95//95 65//65 18//18
f 18//18 30//30 32//32
f 25//25 32//32 4//4
f 16//16 47//47 49//49
f 47//47 32//32 25//25
f 85//85 66//66 42//42
f 18//18 32//32 47//47
f 18//18 47//47 16//16
f 1//1 3//3 53//53
f 2//2 1//1 26//26
f 2//2 26//26 55//55
f 9//9 2//2 46//46
f 3//3 2//2 9//9
f 65//65 21//21 30//30
f 5//5 4//4 20//20
f 34//34 22//22 55//55
f 44//44 22//22 34//34
f 10//10 9//9 14//14
f 12//12 11//11 43//43
f 45//45 56//56 23//23
f 45//45 23//23 15//15
f 14//14 52//52 10//10
f 15//15 14//14 45//45
f 92//92 52//52 14//14
f 66//66 51//51 40//40
f 17//17 16//16 50//50
f 5//5 19//19 37//37
f 93//93 68//68 21//21
f 21//21 20//20 31//31
f 20//20 19//19 5//5
f 22//22 23//23 55//55
f 15//15 22//22 58//58
f 64//64 69//69 70//70
f 70//70 6//6 28//28
f 6//6 24//24 4//4
f 87//87 35//35 6//6
f 6//6 35//35 24//24
f 55//55 24//24 34//34
f 24//24 55//55 26//26
f 24//24 26//26 25//25
f 27//27 26//26 71//71
f 19//19 28//28 37//37
f 31//31 30//30 21//21
f 33//33 24//24 36//36
f 36//36 35//35 73//73
f 37//37 6//6 5//5
f 38//38 8//8 57//57
f 41//41 40//40 51//51
f 43//43 42//42 41//41
f 44//44 33//33 74//74
f 45//45 2//2 56//56
f 48//48 47//47 54//54
f 27//27 48//48 54//54
f 71//71 48//48 27//27
f 71//71 50//50 48//48
f 59//59 50//50 71//71
f 51//51 75//75 38//38
f 12//12 38//38 57//57
f 51//51 43//43 41//41
f 51//51 38//38 12//12
f 52//52 3//3 10//10
f 50//50 49//49 48//48
f 54//54 25//25 27//27
f 14//14 46//46 45//45
f 56//56 55//55 23//23
f 57//57 13//13 12//12
f 20//20 32//32 31//31
f 36//36 74//74 33//33
f 73//73 74//74 36//36
f 94//94 39//39 38//38
f 26//26 59//59 71//71
f 63//63 60//60 62//62
f 61//61 60//60 77//77
f 83//83 77//77 82//82
f 11//11 79//79 42//42
f 83//83 80//80 77//77
f 91//91 82//82 77//77
f 80//80 86//86 81//81
f 77//77 80//80 61//61
f 13//13 79//79 11//11
f 84//84 88//88 86//86
f 79//79 83//83 85//85
f 79//79 85//85 42//42
f 80//80 84//84 86//86
f 87//87 6//6 70//70
f 89//89 87//87 69//69
f 44//44 79//79 22//22
f 22//22 79//79 58//58
f 69//69 88//88 89//89
f 84//84 89//89 88//88
f 87//87 70//70 69//69
f 82//82 85//85 83//83
f 61//61 80//80 81//81
f 62//62 61//61 63//63
f 78//78 91//91 77//77
f 78//78 77//77 60//60
f 81//81 90//90 61//61
f 63//63 78//78 60//60
f 76//76 92//92 15//15
f 76//76 15//15 7//7
f 30//30 18//18 65//65
f 68//68 64//64 29//29
f 68//68 29//29 19//19
f 40//40 42//42 66//66
f 64//64 70//70 28//28
f 65//65 93//93 21//21
f 19//19 21//21 68//68
f 66//66 75//75 51//51
f 8//8 76//76 7//7
f 75//75 94//94 38//38
f 67//67 76//76 39//39
f 94//94 67//67 39//39
f 72//72 95//95 18//18
f 72//72 18//18 17//17
f 59//59 72//72 17//17
