o object
v 4 40 0
v 4 44 4
v -8 44 4
v -14 40 4
v -8 40 4
v -8 40 0
v -12 44 0.000001
v -12 40 0.000001
v 6 40 0
v 6 44 4
v 6 40 4
v -20 40 0
v -20 44 4
v -8 40 2
v 0 40 0
v 0 44 4
v 0 40 4
v -6 40 4
v -6 40 2
v -2 44 2
v -2 40 2
v -12 40 2
v -8 44 2
v -12 44 2
v -18 40 4
v -20 40 4
v -6 44 2
v -2 44 0
v -2 40 0
v 4 40 4
v -18 44 0
v -18 40 2
v -72 -7.999996 0
v -72 8.000004 8.000002
v -64 8.000004 0
v -64 8.000004 8.000002
v -72 -7.999996 8.000002
v -64 -7.999996 8.000002
v -14 40 2
v -14 44 4
v -8 44 0
v 4 44 0
v -6 44 4
v 0 44 0
v -18 44 4
v -14 44 0
v -64 -37.999992 0
v 64 -39.999992 16
v 64 -39.99999199999999 0
v 64 40 16
v 64 40 0
v -62 -39.99999199999999 16
v -62 -39.99999199999999 0
v -62 40 16
v -62 40 0
v -64 -37.999992 16
v -64 -7.999996 0
v -64 38 16
v -64 38 0
v -72 8.000004 0
v -20 44 0
v 6 44 0
v -14 40 0
v -18 40 0
vn -0.8944271909999159 0.4472135954999579 0
vn -0.6666666666666666 0.3333333333333333 0.6666666666666666
vn 0.5773502691896258 0.5773502691896258 0.5773502691896258
vn -0.2672612419124244 0.8017837257372732 0.5345224838248488
vn 0.30151134457776363 0.9045340337332909 0.30151134457776363
vn 0.00000017677669529663136 0.7071067811865475 0.7071067811865255
vn 0.26726136599799666 0.8017836971021416 0.5345224647347444
vn 0.6666667129629614 0.6666666296296327 0.333333314814806
vn 0.8944271909999159 0.4472135954999579 0
vn 0.6666666666666666 0.6666666666666666 0.3333333333333333
vn 0.2672612419124244 0.8017837257372732 0.5345224838248488
vn -0.7071067811865475 0.7071067811865475 0
vn -0.5773502691896258 0.5773502691896258 0.5773502691896258
vn 0.31234752377721214 0.9370425713316364 -0.15617376188860607
vn 0.7071067811865475 0.7071067811865475 0
vn 0.48507125007266594 0.7276068751089989 0.48507125007266594
vn 0.30151134457776363 0.9045340337332909 0.30151134457776363
vn -0.4082482904638631 0.8164965809277261 0.4082482904638631
vn -0.2672612419124244 0.8017837257372732 -0.5345224838248488
vn -0.2672612419124244 0.8017837257372732 -0.5345224838248488
vn -0.8164965809277261 0.4082482904638631 -0.4082482904638631
vn 0.408248290463863 0.408248290463863 -0.8164965809277261
vn 0.4082482904638631 0.4082482904638631 -0.8164965809277261
vn 0.5345224838248487 0.8017837257372732 -0.2672612419124244
vn 0.2182178902359924 0.8728715609439696 0.4364357804719848
vn -0.4082482904638631 0.8164965809277261 0.4082482904638631
vn -0.8164965809277261 0.4082482904638631 -0.4082482904638631
vn -0.7071067811865475 0.7071067811865475 0
vn -0.31622776601683794 0.9486832980505138 0
vn -0.23570226039551587 0.9428090415820635 0.23570226039551587
vn 0.7071067811865475 0.7071067811865475 0
vn 0.7071067811865476 0.7071067811865476 0
vn -0.7071067811865475 -0.7071067811865475 0
vn -0.6666666666666666 0.6666666666666666 0.3333333333333333
vn -0.4472135954999579 0.8944271909999159 0
vn -0.8728715609439696 0.2182178902359924 0.4364357804719848
vn -0.4082482904638631 -0.4082482904638631 0.8164965809277261
vn -0.8017837257372732 -0.5345224838248488 0.2672612419124244
vn -0.7071067811865476 0.7071067811865476 0
vn -0.5345224838248488 0.8017837257372732 0.2672612419124244
vn 0.00000017677669529663136 0.7071067811865475 0.7071067811865255
vn -0.4472135954999579 0.8944271909999159 0
vn -0.4082482904638631 0.8164965809277261 0.4082482904638631
vn 0.7071067811865475 0.7071067811865475 0
vn 0.8164965809277261 0.4082482904638631 0.4082482904638631
vn -0.7071067811865475 0.7071067811865475 0
vn -0.9238795325112864 -0.3826834323650906 0
vn 0.44721359549995787 -0.8944271909999159 -0.00000000000000019860273225978183
vn 0.8944271909999159 -0.4472135954999579 -0.00000000000000019860273225978183
vn 0.8944271909999159 0.4472135954999579 0
vn 0.31622776601683794 0.9486832980505138 0
vn -0.5054494651244226 -0.8628562094610175 0
vn -0.2527247325622113 -0.9675382212353985 -0.000000000000000158720478687521
vn -0.060289916407448706 0.9981809084427445 0
vn -0.5054494651244235 0.8628562094610167 0
vn -0.9822902577808735 -0.18736555037889166 0
vn -0.7071067811865475 -0.7071067811865475 0
vn -0.9238795325112867 0.3826834323650898 0
vn -0.9675382212353982 0.25272473256221173 0
vn -0.7071067811865475 0.7071067811865475 0
vn -0.7071067811865475 0.7071067811865475 0
vn 0.7071067811865475 0.7071067811865475 0
vn -0.4472135954999579 0.8944271909999159 0
vn 0.7071067811865475 0.7071067811865475 0
f 42//42 1//1 2//2
f 5//5 3//3 4//4
f 8//8 6//6 7//7
f 11//11 9//9 10//10
f 61//61 12//12 13//13
f 5//5 14//14 3//3
f 17//17 15//15 16//16
f 17//17 16//16 18//18
f 21//21 19//19 20//20
f 14//14 22//22 23//23
f 22//22 8//8 24//24
f 26//26 25//25 13//13
f 19//19 18//18 27//27
f 29//29 21//21 28//28
f 30//30 11//11 2//2
f 64//64 31//31 32//32
f 60//60 33//33 34//34
f 36//36 35//35 34//34
f 38//38 36//36 37//37
f 56//56 36//36 38//38
f 1//1 15//15 30//30
f 25//25 39//39 32//32
f 54//54 25//25 26//26
f 4//4 39//39 25//25
f 54//54 4//4 25//25
f 29//29 19//19 21//21
f 14//14 8//8 22//22
f 14//14 6//6 8//8
f 18//18 14//14 5//5
f 19//19 14//14 18//18
f 29//29 6//6 14//14
f 29//29 14//14 19//19
f 4//4 3//3 40//40
f 7//7 6//6 41//41
f 63//63 32//32 39//39
f 24//24 40//40 3//3
f 24//24 3//3 23//23
f 41//41 46//46 7//7
f 7//7 40//40 24//24
f 3//3 14//14 23//23
f 62//62 42//42 10//10
f 54//54 51//51 11//11
f 18//18 16//16 43//43
f 20//20 19//19 27//27
f 43//43 20//20 27//27
f 16//16 20//20 43//43
f 16//16 28//28 20//20
f 16//16 44//44 28//28
f 45//45 31//31 13//13
f 23//23 22//22 24//24
f 24//24 8//8 7//7
f 13//13 25//25 45//45
f 27//27 18//18 43//43
f 28//28 21//21 20//20
f 40//40 39//39 4//4
f 40//40 46//46 39//39
f 2//2 11//11 10//10
f 45//45 25//25 32//32
f 33//33 38//38 37//37
f 56//56 58//58 36//36
f 37//37 36//36 34//34
f 57//57 47//47 38//38
f 49//49 51//51 50//50
f 47//47 56//56 38//38
f 55//55 59//59 58//58
f 37//37 34//34 33//33
f 33//33 57//57 38//38
f 35//35 60//60 34//34
f 7//7 46//46 40//40
f 30//30 2//2 1//1
f 51//51 9//9 11//11
f 26//26 13//13 12//12
f 54//54 11//11 30//30
f 2//2 10//10 42//42
f 9//9 62//62 10//10
f 31//31 61//61 13//13
f 54//54 50//50 51//51
f 46//46 63//63 39//39
f 45//45 32//32 31//31
f 63//63 64//64 32//32
f 17//17 30//30 15//15
f 15//15 44//44 16//16
f 54//54 12//12 55//55
f 59//59 35//35 36//36
f 36//36 58//58 59//59
f 47//47 53//53 52//52
f 52//52 56//56 47//47
f 53//53 49//49 48//48
f 58//58 54//54 55//55
f 48//48 52//52 53//53
f 50//50 48//48 49//49
f 54//54 26//26 12//12
f 54//54 30//30 17//17
f 54//54 17//17 18//18
f 54//54 18//18 5//5
f 54//54 5//5 4//4
