o object
v -64 -26.83332669945988 0
v -64 -7.999996 8.000002
v -64 -13.217388139886442 0
v 4 41.714285714285715 0
v 4 44 4
v 4 42 0
v -14 40 4
v -8 40 4
v -8 44 4
v -12 44 0.000001
v -12 40 0.000001
v -8 40 0
v 6 40.57142857142857 0
v 6 40 4
v 6 40 0
v -20 42 0
v -20 40 0
v -20 44 4
v -8 40 2
v 0 40 0
v 0 41.333333333333336 0
v 0 40 4
v -6 40 4
v 0 44 4
v -2 44 2
v -2 40 2
v -6 40 2
v -8 44 2
v -12 40 2
v -12 44 2
v -20 40 4
v -18 40 4
v -6 44 2
v -2 43.625 0
v -2 44 0
v 4 40 4
v -18 41.33333355555559 0.0000000000000002220446049250313
v -18 44 4
v -18 40 2
v -72 0.000002000000000279556 0
v -72 -7.999996 8.000002
v -72 8.000004 8.000002
v -64 8.000004 0
v -67.999999 8.000004 0
v -64 8.000004 8.000002
v -64 -15.999993466666762 16
v -64 -4.266659351111159 16
v 9.333333333333332 40 16
v 45.09090909090909 40 0
v 8 40 16
v 5.333333333333333 40 16
v 1.333333333333333 40 0
v -21 40 0
v -40.18181818181819 40 16
v -14 40 2
v -8 40 16
v 1.333333333333333 40 16
v -6.666666666666668 40 16
v 0 40 16
v -2 40 0
v -4 40 16
v -3.435294440968889 39.99999999999999 0
v -6 40 0
v 64 7.999999999999993 16
v 64 -15.999997199999854 16.000000000000007
v 64 40 0
v -14 44 4
v -8.00000000044409 41.49999999988898 0.00000000000000011102230247073295
v -14.666666777777797 40 0.0000000000000002220446049250313
v -17.333333222222205 40 0
v -12.000000333333277 44 0
v -14 44 0
v 5 44 0
v 6 44 4
v -6 44 4
v 0 44 0
v -18 44 0
v -14 41 0
v 37.00000180000018 -39.999992 0
v 64 -39.999992 0
v 26.200002520000247 -39.999992 15.999999999999996
v -67.999999 -7.999996 0
v -64 16.000001466666763 16
v -64 23.652175202268488 16
v -18 40.50000006250001 0
v -18 40 0.0000000000000002220446049250313
v 4 40 0
v -18 43.07692314201184 0.00000000000000005124105906185485
v -62 -39.999992 16.000000000000004
v -62.6153846469428 -39.3846073530572 16
v -62 -39.999992 0
v 64 35.14909627062483 16.000000000000004
v 64 40 16.000000000000007
v 49.454545586776874 40 0
v 55.272727933884354 40 16.000000000000004
v -18.999999874999986 44 0
v -72 8.000004 0
v -34 40 16
v 6 44 0
v 4 42.666666666666664 0
v 4 44 0
v -63.025641078238 -38.974350921761996 0
v -64 38 15.999999999999996
v -64 13.217393531191025 0
v -72 -7.999996 0
v -14 40 0.0000000000000002220446049250313
v -64 34.7499994609374 0
v -64 38 0
v 64 13.665027231527091 0
v 64 0.000002000000108637323 0
v 33.45454545454545 40 16
v -64 -37.999992 0
v -64 -37.999992 15.999999999999996
v -8 44 0
v -11.999998000001 44 0
v 3.255061045026224 39.99999999999999 0
v 6 42 0
v -62 40 16
v -62 40 0
v 16.146720637232633 39.99999999999999 0
v 27 40 0
v -20 43.906976732828554 0
v -20 44 0
v 64 -39.999992 16
v 7 40 0
v -69.63265252103294 -7.999996000000003 0
v -63.764044632495896 -38.23594736750411 0
v 64 -22.857138571428468 0
v -62.8421052631579 39.1578947368421 15.999999999999996
v -21.277108556829738 39.99999999999999 0
v -64 -31.013691616438358 16
v -63.4285713877551 38.5714286122449 0
v -64 -7.999996 0
v -11.59999495999952 -39.999992 15.999999999999993
v -63.4358974069691 38.5641025930309 15.999999999999993
v -63.025640975673895 38.974359024326105 -0.000000000000007105427357601002
v 1 -39.999992 0
v -12 44 0
v 6 42.805755476424615 0
v -64 10.938778501457797 0
v 64 16.497411647668386 16
v 64 15.713801376490636 16
v 64 14.577631893155257 16
v -54.07930396009308 40 -0.0000000000000056279932894655234
v -54.040816609641844 40 -0.00000000000000565534019799194
v -46.41558486085347 40 -0.000000000000007105427357601002
v 64 15.3299516751269 0
v 64.00000000000003 15.117747157545601 0
v 64 16.897393586086956 16
v 64 25.23277411177427 16
v 6 43.80530973451327 0
v 6 43.65217391304348 0
v -20 43.19999999111111 0
v -20 43.26530609912536 0
v 8.74698840934829 39.99999999999999 0
v 64 17.312822892307693 0
v 64.00000000000003 16.93532593034825 0
v -64 32.90721584865543 -0.00000000000000571364228026732
v -64 -26.980762615384617 0
v -64 -26.905653735849057 0
v 64 15.907694687179486 0
v 10.628027465174702 39.99999999999999 0
v 10.698795633618857 39.99999999999999 0
v -18 43.40000006000001 0
v -18 43.20000008000001 0.00000000000000004440891654411356
v 64 30.176094264723027 0
v 64 22.77586377011494 0
v -21.427481763137806 39.999999999999986 0
v -20 43.88584739533067 -0.00000000000000016139295347298773
v 64 32.22555572076178 0
v -18 41.249999984374995 0.00000000000000008326672858161056
v -2 42.666666666666664 0
v -2 43 0
v 6 40.666666666666664 0
v -20 42.84444439209876 0
v 4 40.44444444444444 0
v 64 14.577631893155257 0
v 64.00000000000003 14.208957771144263 0
v -21.918303045756538 39.999999999999986 0
v -21.541176590640156 39.99999999999998 0
v -64 -30.52054093150685 0
v -64 -30.119396059701494 0
v -20 42.728502330375036 0
v -8 42.5 0
v 64 16.201033278350508 0
v -64 -27.745447854545457 0.000000000000000036334571715005117
v -64 -27.245276377358493 0
v 4 42.308457870646755 0
v -24.7814791805151 40 0
v -24.444444827160538 40 0
v -20 42.424318613286744 0
v -20 42.425925880958495 0
v -22.2324556226545 40 0
v -22.145896714260314 40 0
v 64 16.720814619289335 0
v -64 -28.644061016949152 0.000000000000000033871210920767484
v -64 -28.502850353338772 0.000000000000000034258310539401625
v -1.9999999999999998 42.12712036615732 0
v 4 41.333333333333336 0
v 64 14.208957771144277 16
v 6 41.68965533174791 0
v 6 41.462686805970144 0
v 9.458824419654064 39.99999999999999 0
v -64 -27.90418493631898 0
v 3.9999999999999996 42.170798993754225 0
v -20 43.85409756888047 -0.0000000000000002591747814042976
v -24.847457941372248 40 0
v -25.636363636363633 40 0
v -64 -29.78460849230769 0
v 6 43.9100204501654 0
v 6 43.824000000512 0
v 13.270589107820143 39.99999999999999 0
v -24.074074509773716 40 0
v -24.000000444444495 40 0
v 64 18.11167756345177 0
v 6 43.13705591878172 0
v 64 18.473580974804896 0
v -64 -30.732387380281693 0
v -3.443314443179432 40.00000000000002 0
v -20 43.31594199486382 0
v -20 43.3972602099831 0
v -22.750000207682305 40 0
v -22.461538612426043 40 0
v -2 41.67123309589041 0
v -8 42.285714285714285 0
v -2 43.42857142857143 0.00000000000000003172065784643304
v 6 41.256198490631334 0
v 6 41.15736048730964 0
v -2 43.57142857142857 0
v -8.00000000050753 41.71428571414071 0.00000000000000012688263139378178
v -20 42.243386215195535 0
v 4 42.10490699153976 0
v 14.412943784274091 39.99999999999999 0
v 6 41.33585896305276 0
v -4.271497140254539 40.00000000000001 0
v 6 41.80895530878938 0
v -2 41.683768873134326 0
v 9.958903820510592 40 0
v 10.218098063353878 40 0
v 14.29373415681126 39.99999999999999 0
v -3.4538867504235764 39.99999999999999 0
v -21.539568827828894 39.999999999999986 0
v -21.53858447321229 39.99999999999998 0
vn -1 0 0
vn -0.9931459096297017 -0.10454167469786334 0.05227083734893167
vn -1 0 0
vn -1 0 0
vn -0.9622504486493764 0.19245008972987493 0.19245008972987543
vn -1 0 0
vn -0.18257418583505536 0.9128709291752768 0.3651483716701107
vn 0.23570226039551587 0.9428090415820635 0.23570226039551587
vn 0.5773502691896258 0.5773502691896258 0.5773502691896258
vn 0.11704132035289275 0.7022468687470533 0.7022468687470313
vn 0.6666667129629614 0.6666666296296327 0.333333314814806
vn 0.00000017677669529663136 0.7071067811865475 0.7071067811865255
vn 1 0 0
vn 0.5513178464199716 0.8269767696299568 0.11026356928399375
vn 0.7071067811865475 0.7071067811865475 0
vn -1 0 0
vn -0.8944271909999159 0.4472135954999579 0
vn -0.9723055853282466 0.19446111706564934 0.12964074471043288
vn 0.31234752377721214 0.9370425713316364 -0.15617376188860607
vn 0.7071067811865475 0.7071067811865475 0
vn 1 0 0
vn 0.3651483716701107 0.9128709291752768 0.18257418583505536
vn -0.4082482904638631 0.8164965809277261 0.4082482904638631
vn 0.48507125007266594 0.7276068751089989 0.48507125007266594
vn -0.2672612419124244 0.8017837257372732 -0.5345224838248488
vn -0.9901475429766744 0.09901475429766744 -0.09901475429766744
vn -0.12038585308567064 0.9630868246861971 -0.24077170617141402
vn 0.4082482904638631 0.4082482904638631 -0.8164965809277261
vn 0.408248290463863 0.408248290463863 -0.8164965809277261
vn 0.5345224838248487 0.8017837257372732 -0.2672612419124244
vn -0.19245008972987526 0.9622504486493764 0.19245008972987526
vn 0.18257418583505536 0.9128709291752768 0.3651483716701107
vn -0.8164965809277261 0.4082482904638631 -0.4082482904638631
vn -1 0 0
vn -0.7071067811865475 0.7071067811865475 0
vn -0.14002800840280177 0.9801960588196068 0.14002800840280064
vn 1 0 0
vn 0.9733285267845753 0.16222142113076254 0.16222142113076254
vn 0.8574929257125441 0.5144957554275265 0
vn -1 0 0
vn -0.48507125007266577 -0.7276068751089989 0.48507125007266616
vn -0.6666666666666666 0.6666666666666666 0.3333333333333333
vn -0.7071067811865475 0.7071067811865475 0
vn 0 1 0
vn -0.9045340337332909 0.30151134457776363 0.30151134457776363
vn -1 0 0
vn -1 0 0
vn 0 1 0
vn 0 1 0
vn 0 1 0
vn 0 1 0
vn 0.0000000000000012324720986515615 1 -0.0000000000000008216480657677078
vn -0.000000000000008547104474013943 1 -0.000000000000010246812750096263
vn 0.00000000000011927586943748929 1 0.00000000000013858633879674702
vn -0.5144957554275265 0.8574929257125441 0
vn 0 1 0
vn 0 1 0
vn 0 1 0
vn 0 1 0
vn -0.44721359549995965 0.894427190999915 -0.000000000000004427863197200781
vn 0 1 0
vn 0.0000000000017694512826756448 1 0.000000000002265508056877678
vn -0.000000000000001370246958235164 1 0
vn 1 0 0
vn 1 0.0000000000000024473933651658958 0.0000000000000048972775059544265
vn 0.9805806756909202 0.19611613513818404 0
vn -0.6882472016116852 0.6882472016116852 0.22941573387056174
vn 0.00000024999999999999205 -0.0000000000000000000002960590820614145 0.9999999999999689
vn 0 1 0
vn 0 1 0
vn 0 1 0
vn -0.4472135954999579 0.8944271909999159 0
vn 0 1 0
vn 0.9630868246861536 0.2407717061715384 0.1203858530857692
vn -0.4082482904638631 0.8164965809277261 0.4082482904638631
vn 0.7071067811865475 0.7071067811865475 0
vn 0.4472135954999579 0.8944271909999159 0
vn -1 0 0
vn 0 -1 0
vn 0.7071067811865475 -0.7071067811865475 0
vn 0 -1 0
vn 0.0000000000000005440091288555816 -1 0.00000000000000027200456442779067
vn -1 0 0
vn -1 0 0
vn 1 0 0
vn 0.7071067811865475 0.7071067811865475 0
vn -0.8944271909999167 0.4472135954999562 0
vn 1 0 0
vn -0.3826834323650898 -0.9238795325112867 0
vn -0.707106781186549 -0.7071067811865461 0.00000000000000033974540858544587
vn -0.30510159287434485 -0.9523198086911443 0
vn 1 0 0
vn 0.7071067811865476 0.7071067811865475 0
vn 0 1 0
vn 0 1 0
vn 0 1 0
vn -0.7071067811865475 0.7071067811865475 0
vn 0 1 0
vn 0.7071067811865475 0.7071067811865475 0
vn -1 0 0
vn -0.7071067811865475 0.7071067811865475 0
vn -0.7071067811865459 -0.7071067811865492 -0.00000000000000008638231190278276
vn -0.9448714172614741 0.3274416052402219 0
vn -1 0 0
vn -0.7071067811865479 -0.7071067811865471 0
vn -0.7071067811865475 0.7071067811865475 0
vn -1 0 0
vn -0.9238795325112867 0.38268343236508984 0
vn 1 -0.000000000000026126230612467286 -0.0000000000000484397043389093
vn 1 0 0
vn 0 1 0
vn -0.9238795325112882 -0.38268343236508623 0.0000000000000005064219957459466
vn -0.9675382212353982 -0.25272473256221173 0
vn 0.00000017677669529663136 0.7071067811865475 0.7071067811865254
vn 0 1 0
vn -0.00000000000000292042582612872 1 -0.0000000000000012324720986515617
vn 1 0 0
vn -0.3826834323650898 0.9238795325112867 0
vn -0.4576523893115174 0.8891311998560503 0
vn -0.0000000000000003273401116890288 1 -0.000000000000002606714006067526
vn -0.0000000000000003273401116890288 1 -0.0000000000000017185355863674012
vn -1 0 0
vn -0.7071067811865475 0.7071067811865475 0
vn 0.7071067811865475 -0.7071067811865475 0
vn 0.0000000000000020336217800814327 1 0.0000000000000005084054450203582
vn 0.0000000000000002532455988710168 -1 0.00000000000000040800684664168603
vn -0.7071067811865511 -0.7071067811865439 0.0000000000000008493635214636147
vn 1 0 0
vn -0.7071067811865476 0.7071067811865476 0
vn -0.000000000000036446632149238965 1 -0.00000000000004350740155923327
vn -1 0 0
vn -0.7071067811865476 0.7071067811865476 0
vn -0.7071067811865475 -0.7071067811865475 0
vn 0 -1 0
vn -0.7071067811865475 0.7071067811865475 0
vn -0.7071067811865476 0.7071067811865476 0
vn 0 -1 0
vn 0 1 0
vn 1 0 0
vn -1 0 0
vn 1 0 0
vn 1 0 0
vn 1 0 0
vn 0 1 0
vn 0 1 0
vn 0 1 0
vn 1 0.00000000000006696772942054652 0.0000000000001311309711893152
vn 1 0.000000000000040656947903859484 0.00000000000008084838879129665
vn 1 0 0
vn 1 0 0
vn 1 0 0
vn 1 0 0
vn -1 0 0
vn -1 0 0
vn 0.0000000000000020336217800814327 1 -0.00000000000000037977297467976706
vn 1 0.00000000000003764495121083577 0.00000000000007837871794189165
vn 1 -0.000000000000028602626341376 -0.0000000000000571009394687138
vn -1 0 0
vn -1 0 0
vn -1 0 0
vn 1 0 0
vn 0.000000000000008666647630104265 1 0.000000000000008251013976378194
vn 0 1 -0.0000000000000017763568394002505
vn 1 0 0
vn 1 0 0
vn 1 0 0
vn 1 0 0
vn -0.000000000000055602816294924013 1 -0.00000000000006606279858351815
vn -1 0 0
vn 1 0 0
vn 1 0 0
vn -1 -0.00000000000000020576974090584667 -0.00000000000000027435965454112863
vn -1 0 0
vn 1 0 0
vn -1 0 0
vn -1 0 0
vn 1 0.000000000000012235061184955718 0.000000000000023382447677852157
vn 1 0.000000000000012419612089175468 0.00000000000002522532573696141
vn 0.000000000000040640277457135635 1 0.00000000000004550146673480873
vn -0.000000000002200304516579654 1 -0.000000000002564775260442773
vn -1 0 0
vn -1 0 0
vn -1 0 0
vn 0.0000002499999999999922 0 0.9999999999999688
vn 1 0 0
vn -1 0 0
vn -1 0 0
vn -1 0.0000000000000016130060765959956 -0.0000000000000006821169333662283
vn 0 1 0
vn 0 1 0
vn -1 0 0
vn -1 0 0
vn 0 1 0
vn 0.00000000000003121979360986981 1 0.00000000000003519235911131106
vn 1 -0.00000000000006624757755221177 -0.00000000000013547965741060546
vn -1 0 0
vn -1 0 0
vn -1 0.00000000000000004464624778409648 -0.00000000000000006353833099548675
vn -1 0 0
vn 1 0 0
vn 1 0 0
vn 1 0 0
vn -0.0000000000000071042991827207245 1 -0.000000000000007919487713830963
vn -1 0 0
vn -1 -0.0000000000000017568202674618142 0.0000000000000009144166527210461
vn -1 0 0
vn 0 1 0
vn 0 1 0
vn -1 0 0
vn 1 0 0
vn 1 0 0
vn 0 1 -0.0000000000000017763568394002505
vn 0 1 0
vn 0 1 0
vn 1 0 0
vn 1 0 0
vn 1 0 0
vn -1 0 0
vn 0.0000000000004277682161578899 1 0.0000000000005574925509952895
vn -1 0 0
vn -1 0 0
vn 0 1 0
vn 0 1 0
vn -1 0 0
vn 0.00000024999999999999226 0.0000000000000000000001110293457860815 0.9999999999999688
vn -1 0 0
vn 1 0 0
vn 1 0 0
vn -1 0 0
vn 0.0000002499999999999921 -0.000000000000000000000185029736275333 0.9999999999999689
vn -1 0 0
vn -1 -0.00000000000000336982634405781 0.0000000000000015965335860872744
vn 0 1 -0.0000000000000017763568394002505
vn 1 0 0
vn 0.000000000000006635110317264402 1 0.000000000000009287117257859569
vn 1 0 0
vn -1 0.00000000000000025041598868994315 0.00000000000000021082132354564189
vn -0.0000000000000071042991827207245 1 -0.000000000000007031309294130838
vn 0.000000000000008666647630104265 1 0.00000000000000913919239607832
vn 0 1 -0.0000000000000017763568394002505
vn -0.0000000000013354678365391404 1 -0.000000000001703678890176534
vn 0.000000000001399455694079936 1 0.000000000001629674447136445
vn 0.0000000000035772038536501497 1 0.000000000004166833199053286
f 3//3 1//1 2//2
f 6//6 4//4 5//5
f 9//9 7//7 8//8
f 12//12 10//10 11//11
f 15//15 13//13 14//14
f 18//18 16//16 17//17
f 19//19 9//9 8//8
f 22//22 20//20 21//21
f 24//24 23//23 22//22
f 27//27 25//25 26//26
f 29//29 28//28 19//19
f 11//11 30//30 29//29
f 32//32 18//18 31//31
f 23//23 33//33 27//27
f 35//35 34//34 26//26
f 14//14 5//5 36//36
f 39//39 37//37 38//38
f 42//42 40//40 41//41
f 45//45 43//43 44//44
f 45//45 41//41 2//2
f 2//2 46//46 47//47
f 14//14 48//48 49//49
f 36//36 50//50 48//48
f 22//22 51//51 36//36
f 36//36 52//52 22//22
f 31//31 53//53 54//54
f 55//55 39//39 32//32
f 31//31 56//56 32//32
f 23//23 57//57 22//22
f 55//55 32//32 7//7
f 32//32 58//58 7//7
f 8//8 59//59 57//57
f 27//27 26//26 60//60
f 7//7 61//61 59//59
f 11//11 29//29 19//19
f 12//12 11//11 19//19
f 19//19 8//8 23//23
f 60//60 62//62 27//27
f 19//19 23//23 27//27
f 12//12 19//19 63//63
f 19//19 27//27 63//63
f 66//66 64//64 65//65
f 9//9 67//67 7//7
f 12//12 68//68 10//10
f 55//55 69//69 70//70
f 67//67 9//9 30//30
f 9//9 28//28 30//30
f 10//10 71//71 72//72
f 67//67 30//30 10//10
f 19//19 28//28 9//9
f 74//74 73//73 5//5
f 24//24 75//75 23//23
f 27//27 33//33 25//25
f 25//25 33//33 75//75
f 25//25 75//75 24//24
f 35//35 25//25 24//24
f 24//24 76//76 35//35
f 38//38 77//77 18//18
f 29//29 30//30 28//28
f 11//11 10//10 30//30
f 32//32 38//38 18//18
f 23//23 75//75 33//33
f 26//26 25//25 35//35
f 55//55 7//7 67//67
f 67//67 72//72 78//78
f 14//14 74//74 5//5
f 32//32 39//39 38//38
f 81//81 79//79 80//80
f 41//41 82//82 2//2
f 45//45 83//83 84//84
f 45//45 42//42 41//41
f 86//86 85//85 39//39
f 24//24 21//21 76//76
f 36//36 5//5 87//87
f 37//37 88//88 38//38
f 91//91 89//89 90//90
f 93//93 92//92 66//66
f 95//95 94//94 49//49
f 18//18 77//77 96//96
f 42//42 97//97 40//40
f 31//31 98//98 56//56
f 74//74 99//99 73//73
f 39//39 55//55 70//70
f 101//101 100//100 5//5
f 90//90 102//102 91//91
f 104//104 84//84 103//103
f 5//5 73//73 101//101
f 41//41 40//40 105//105
f 55//55 106//106 69//69
f 108//108 107//107 103//103
f 110//110 109//109 65//65
f 32//32 56//56 58//58
f 49//49 111//111 95//95
f 24//24 22//22 21//21
f 113//113 112//112 90//90
f 10//10 114//114 115//115
f 87//87 116//116 36//36
f 23//23 8//8 57//57
f 74//74 14//14 117//117
f 119//119 118//118 54//54
f 113//113 2//2 112//112
f 39//39 70//70 86//86
f 31//31 18//18 17//17
f 121//121 120//120 14//14
f 123//123 122//122 18//18
f 14//14 36//36 48//48
f 124//124 80//80 65//65
f 14//14 125//125 15//15
f 45//45 2//2 47//47
f 105//105 126//126 41//41
f 31//31 17//17 53//53
f 112//112 127//127 90//90
f 65//65 128//128 110//110
f 66//66 95//95 93//93
f 42//42 45//45 44//44
f 119//119 129//129 118//118
f 55//55 67//67 78//78
f 53//53 130//130 54//54
f 95//95 66//66 94//94
f 113//113 131//131 2//2
f 104//104 45//45 84//84
f 103//103 132//132 108//108
f 8//8 7//7 59//59
f 2//2 82//82 133//133
f 49//49 48//48 111//111
f 91//91 134//134 89//89
f 18//18 96//96 123//123
f 136//136 135//135 119//119
f 31//31 54//54 98//98
f 67//67 10//10 72//72
f 81//81 91//91 137//137
f 22//22 52//52 20//20
f 45//45 47//47 83//83
f 10//10 138//138 71//71
f 10//10 115//115 138//138
f 22//22 57//57 51//51
f 117//117 139//139 74//74
f 136//136 103//103 135//135
f 104//104 140//140 45//45
f 7//7 58//58 61//61
f 42//42 44//44 97//97
f 36//36 51//51 50//50
f 124//124 81//81 80//80
f 14//14 49//49 121//121
f 55//55 78//78 106//106
f 2//2 133//133 3//3
f 66//66 141//141 142//142
f 142//142 143//143 66//66
f 145//145 144//144 54//54
f 54//54 146//146 145//145
f 148//148 147//147 65//65
f 150//150 149//149 66//66
f 152//152 151//151 74//74
f 82//82 41//41 126//126
f 154//154 153//153 18//18
f 103//103 136//136 132//132
f 125//125 14//14 155//155
f 157//157 156//156 65//65
f 141//141 66//66 149//149
f 104//104 103//103 158//158
f 160//160 159//159 2//2
f 147//147 161//161 65//65
f 163//163 162//162 14//14
f 165//165 164//164 38//38
f 167//167 166//166 65//65
f 130//130 168//168 54//54
f 122//122 169//169 18//18
f 166//166 170//170 65//65
f 37//37 39//39 171//171
f 173//173 172//172 26//26
f 13//13 174//174 14//14
f 153//153 175//175 18//18
f 87//87 5//5 176//176
f 178//178 177//177 65//65
f 160//160 2//2 1//1
f 180//180 179//179 54//54
f 182//182 181//181 2//2
f 77//77 38//38 164//164
f 175//175 183//183 18//18
f 114//114 10//10 184//184
f 161//161 185//185 65//65
f 187//187 186//186 2//2
f 81//81 137//137 79//79
f 100//100 188//188 5//5
f 190//190 189//189 54//54
f 192//192 191//191 18//18
f 194//194 193//193 54//54
f 185//185 195//195 65//65
f 197//197 196//196 2//2
f 157//157 65//65 195//195
f 172//172 198//198 26//26
f 4//4 199//199 5//5
f 187//187 2//2 159//159
f 119//119 135//135 129//129
f 165//165 38//38 88//88
f 200//200 66//66 143//143
f 66//66 65//65 170//170
f 52//52 36//36 116//116
f 202//202 201//201 14//14
f 155//155 14//14 203//203
f 186//186 204//204 2//2
f 188//188 205//205 5//5
f 169//169 206//206 18//18
f 208//208 54//54 207//207
f 196//196 209//209 2//2
f 211//211 210//210 74//74
f 163//163 14//14 212//212
f 214//214 213//213 54//54
f 156//156 215//215 65//65
f 148//148 65//65 177//177
f 150//150 66//66 92//92
f 152//152 74//74 216//216
f 215//215 217//217 65//65
f 181//181 218//218 2//2
f 66//66 200//200 64//64
f 211//211 74//74 151//151
f 62//62 219//219 27//27
f 221//221 220//220 18//18
f 99//99 74//74 210//210
f 223//223 222//222 54//54
f 60//60 26//26 224//224
f 178//178 65//65 109//109
f 171//171 39//39 85//85
f 184//184 10//10 225//225
f 173//173 26//26 226//226
f 228//228 227//227 14//14
f 176//176 5//5 199//199
f 102//102 90//90 127//127
f 46//46 2//2 131//131
f 43//43 45//45 140//140
f 65//65 80//80 128//128
f 182//182 2//2 209//209
f 91//91 81//81 134//134
f 54//54 208//208 146//146
f 228//228 14//14 174//174
f 154//154 18//18 220//220
f 192//192 18//18 183//183
f 226//226 26//26 229//229
f 225//225 10//10 230//230
f 112//112 2//2 218//218
f 197//197 2//2 204//204
f 167//167 65//65 217//217
f 194//194 54//54 179//179
f 221//221 18//18 206//206
f 16//16 18//18 231//231
f 205//205 232//232 5//5
f 214//214 54//54 222//222
f 120//120 233//233 14//14
f 227//227 234//234 14//14
f 63//63 27//27 235//235
f 201//201 236//236 14//14
f 117//117 14//14 236//236
f 216//216 74//74 139//139
f 224//224 26//26 237//237
f 190//190 54//54 213//213
f 239//239 238//238 14//14
f 233//233 240//240 14//14
f 219//219 241//241 27//27
f 235//235 27//27 241//241
f 243//243 242//242 54//54
f 230//230 10//10 68//68
f 202//202 14//14 234//234
f 119//119 54//54 144//144
f 223//223 54//54 193//193
f 207//207 54//54 189//189
f 6//6 5//5 232//232
f 231//231 18//18 191//191
f 158//158 103//103 107//107
f 212//212 14//14 240//240
f 239//239 14//14 162//162
f 229//229 26//26 34//34
f 180//180 54//54 242//242
f 237//237 26//26 198//198
f 243//243 54//54 168//168
f 203//203 14//14 238//238
