o object
v -64 -33.371420958367366 16
v -64 -37.999992 15.999999999999996
v -64 -31.999992400000025 32
v -62.15954416519346 -39.84044783480654 16
v -62 -39.999992 16.000000000000004
v -62.2051282156476 -39.7948637843524 32.00000000000001
v -62.4786324689897 39.5213675310103 32.00000000000001
v -62 40 32.00000000000001
v -63.4358974069691 38.5641025930309 15.999999999999993
v -32.599999159999925 -39.999992 32
v -62 -39.999992 32
v 26.200002520000247 -39.999992 15.999999999999996
v 5.7142857142857135 40 16
v 5.333333333333334 40 16
v 13.333333333333332 40 32
v -6.2857142857142865 40 16
v -6.666666666666664 40 16
v 9.333333333333332 40 32
v -64 16.695653508506705 16
v -64 16.000001466666763 16
v -64 34.086956873345954 32
v 13.777777777777779 40 32
v 21.81818181818182 40 32
v 9.333333333333334 40 16
v -64 38 32
v -64 38 15.999999999999996
v -64 23.652175202268488 16
v 1.1428571428571415 40 16
v 0 40 16
v 10.666666666666666 40 32
v -4 40 16
v 64.00000000000003 14.208957771144263 16
v 64 -31.9999963999998 32
v 64 -15.999997199999854 16.000000000000007
v -20.75857830448077 40 15.999999999999998
v 8 40 32
v -8 40 16
v -64 -15.999993466666762 16
v -64 -18.786697795013847 16
v 55.272727933884354 40 16.000000000000004
v 33.45454545454545 40 16
v 61.09091028099184 40 32
v -62.666666666666664 -39.333325333333335 32.00000000000001
v -64 -37.999992 32
v 64 38.315790314695114 32
v 64 40 16.000000000000007
v 64 40 32
v 64 -39.999992 32
v 64 -39.999992 16
v -64 -5.333325911111135 16
v -63.8461538382643 38.1538461617357 32.00000000000001
v -62 40 16
v 8.444444444444443 40 32
v 1.333333333333334 40 16
v 11.11111111111111 40 32
v -52.666666666666664 40 32
v -34 40 16
v 8 40 16
v -54.72727272727273 40 32
v -40.18181818181819 40 16
v -64 -4.266659351111159 16
v -64 -28.799992186666678 32
v 64 -34.692822285182395 32
v 12.444444444444445 40 32
v 51.4000050400005 -39.999992 32
v 61.73737466299365 40 16.000000000000007
v -64 32.000000400000026 32
v -6.857142857142858 40 16
v 64 -33.77777319999984 15.999999999999993
v -62.6153846469428 -39.3846073530572 16
v 4.761904761904762 40 16
v -44.222222222222214 40 16
v 64 14.577631893155257 16
v 64 35.14909627062482 16.000000000000004
v 64 20.93150873262303 32
v 64 18.271812235014835 32
v 64 15.713801376490622 16
v 64.00000000000003 15.824435452816374 16
v 64 25.23277411177427 16
v 64 16.897393586086956 16
v 64 16.497411647668386 16
vn -1 0 0
vn -0.8891311998560503 -0.4576523893115173 0
vn -1 0 0
vn -0.7071067811865476 -0.7071067811865476 0
vn -0.5054494651244235 -0.8628562094610167 0
vn -0.7071067811865475 -0.7071067811865475 0
vn -0.7071067811865476 0.7071067811865476 0
vn -0.30510159287434485 0.9523198086911443 0
vn -0.7071067811865475 0.7071067811865475 0
vn 0 -1 0
vn -0.25272473256221173 -0.9675382212353982 0
vn 0 -1 0
vn 0 1 0
vn 0 1 0
vn 0 1 0
vn 0 1 0
vn 0 1 0
vn 0 1 0
vn -1 0 0
vn -1 0 0
vn -1 0 0
vn 0 1 0
vn 0 1 0
vn 0 1 0
vn -0.9238795325112867 0.3826834323650898 0
vn -0.9238795325112867 0.38268343236508984 0
vn -1 0 0
vn 0 1 0
vn 0 1 0
vn 0 1 0
vn 0 1 0
vn 1 0.00000000000003807542408806354 0.00000000000011174045226016292
vn 1 -0.000000000000010654970895345071 -0.000000000000031892866544055435
vn 1 -0.000000000000000470418613579197 -0.000000000000000470418590058265
vn 0 1 0
vn 0 1 0
vn 0 1 0
vn -1 0 0
vn -1 0 0
vn 0 1 0
vn 0 1 0
vn 0 1 0
vn -0.7071067811865476 -0.7071067811865476 0
vn -0.9238795325112867 -0.3826834323650898 0
vn 1 0 0
vn 0.9284766908852593 0.3713906763541037 0
vn 0.7071067811865475 0.7071067811865475 0
vn 0.4472135954999579 -0.8944271909999159 0
vn 0.9486832980505138 -0.31622776601683794 0
vn -1 0 0
vn -0.7071067811865476 0.7071067811865476 0
vn -0.3826834323650898 0.9238795325112867 0
vn 0 1 0
vn 0 1 0
vn 0 1 0
vn 0 1 0
vn 0 1 0
vn 0 1 0
vn 0 1 0
vn 0 1 0
vn -1 0 0
vn -1 0 0
vn 1 0 0
vn 0 1 0
vn 0 -1 0
vn 0 1 0
vn -1 0 0
vn 0 1 0
vn 1 0 0
vn -0.7071067811865476 -0.7071067811865476 0
vn 0 1 0
vn 0 1 0
vn 1 0.000000000000038545842701642735 0.00000000000011221087085022119
vn 1 0 0
vn 1 0 0
vn 1 0 0
vn 1 -0.00000000000012844916491515168 -0.0000000000003830498424575385
vn 1 -0.0000000000001073327349078065 -0.00000000000031904408479652325
vn 1 0 0
vn 1 0 0
vn 1 0.000000000000021116430007345177 0.00000000000006400575766101525
f 3//3 1//1 2//2
f 6//6 4//4 5//5
f 9//9 7//7 8//8
f 12//12 10//10 11//11
f 15//15 13//13 14//14
f 18//18 16//16 17//17
f 21//21 19//19 20//20
f 24//24 22//22 23//23
f 26//26 25//25 9//9
f 27//27 21//21 25//25
f 30//30 28//28 29//29
f 31//31 18//18 29//29
f 34//34 32//32 33//33
f 37//37 35//35 36//36
f 3//3 38//38 39//39
f 42//42 40//40 41//41
f 23//23 41//41 24//24
f 2//2 43//43 44//44
f 47//47 45//45 46//46
f 29//29 18//18 30//30
f 49//49 48//48 12//12
f 3//3 50//50 38//38
f 26//26 27//27 25//25
f 9//9 25//25 51//51
f 23//23 42//42 41//41
f 8//8 52//52 9//9
f 53//53 17//17 36//36
f 46//46 42//42 47//47
f 44//44 3//3 2//2
f 55//55 54//54 30//30
f 57//57 56//56 36//36
f 15//15 24//24 58//58
f 60//60 59//59 56//56
f 62//62 61//61 3//3
f 57//57 60//60 56//56
f 24//24 15//15 22//22
f 33//33 63//63 49//49
f 14//14 64//64 15//15
f 12//12 48//48 65//65
f 53//53 18//18 17//17
f 42//42 66//66 40//40
f 60//60 8//8 59//59
f 5//5 11//11 6//6
f 5//5 12//12 11//11
f 20//20 67//67 21//21
f 20//20 62//62 67//67
f 62//62 20//20 61//61
f 36//36 68//68 37//37
f 33//33 69//69 34//34
f 14//14 55//55 64//64
f 6//6 2//2 70//70
f 55//55 71//71 54//54
f 8//8 72//72 52//52
f 32//32 73//73 33//33
f 18//18 31//31 16//16
f 46//46 33//33 74//74
f 3//3 61//61 50//50
f 45//45 75//75 46//46
f 42//42 46//46 66//66
f 75//75 76//76 46//46
f 73//73 77//77 33//33
f 12//12 65//65 10//10
f 6//6 70//70 4//4
f 15//15 58//58 13//13
f 30//30 54//54 28//28
f 33//33 49//49 69//69
f 8//8 60//60 72//72
f 21//21 27//27 19//19
f 77//77 78//78 33//33
f 80//80 79//79 33//33
f 74//74 33//33 79//79
f 2//2 6//6 43//43
f 33//33 46//46 76//76
f 55//55 14//14 71//71
f 57//57 36//36 35//35
f 36//36 17//17 68//68
f 9//9 51//51 7//7
f 80//80 33//33 81//81
f 48//48 49//49 63//63
f 3//3 39//39 1//1
f 81//81 33//33 78//78
