o object
v -64 -37.999992 -32
v -64 -37.999992 -16
v -4 38 -18
v -8 40 -18
v -10 38 -18
v -10 40 -16
v -10 40 -18
v -4 40 -18
v -4 38 -16
v -4 40 -16
v -64 38 -16
v -62 40 -32
v -62 40 -16
v -10 38 -16
v 64 -39.99999199999999 -16
v 64 -39.999992 -32
v 64 40 -16
v 64 40 -32
v -62 -39.99999199999999 -16
v -62 -39.99999199999999 -32
v -64 38 -32
vn -0.862856209461016 -0.5054494651244246 0
vn -0.9675382212353981 -0.2527247325622123 0
vn -0.4082482904638631 0.4082482904638631 0.8164965809277261
vn 0 0.5547001962252291 0.8320502943378437
vn 0.5773502691896258 0.5773502691896258 0.5773502691896258
vn 0.8944271909999159 0.4472135954999579 0
vn 0.30151134457776363 0.9045340337332909 0.30151134457776363
vn -0.6666666666666666 0.6666666666666666 0.3333333333333333
vn -0.7071067811865475 0.7071067811865475 0
vn -0.4472135954999579 0.8944271909999159 0
vn -0.8628562094610167 0.5054494651244235 0
vn -0.5054494651244235 0.8628562094610167 0
vn -0.18736555037889127 0.9822902577808736 0
vn 0.7071067811865475 0.7071067811865475 0
vn 0.44721359549995787 -0.8944271909999159 0.00000000000000019860273225978183
vn 0.8944271909999159 -0.4472135954999579 0.00000000000000019860273225978183
vn 0.8944271909999159 0.4472135954999579 0
vn 0.1643989873053573 0.9863939238321437 0
vn -0.5054494651244225 -0.8628562094610175 0
vn -0.2527247325622113 -0.9675382212353985 0.000000000000000158720478687521
vn -0.9675382212353982 0.25272473256221173 0
f 5//5 3//3 4//4
f 18//18 4//4 8//8
f 10//10 8//8 9//9
f 7//7 6//6 5//5
f 2//2 11//11 21//21
f 3//3 8//8 4//4
f 5//5 4//4 7//7
f 5//5 9//9 3//3
f 14//14 9//9 5//5
f 9//9 8//8 3//3
f 5//5 6//6 14//14
f 18//18 7//7 4//4
f 13//13 6//6 7//7
f 16//16 18//18 17//17
f 18//18 10//10 17//17
f 18//18 13//13 7//7
f 12//12 21//21 11//11
f 1//1 20//20 19//19
f 21//21 1//1 2//2
f 19//19 2//2 1//1
f 18//18 12//12 13//13
f 20//20 16//16 15//15
f 11//11 13//13 12//12
f 15//15 19//19 20//20
f 18//18 8//8 10//10
f 17//17 15//15 16//16
