o object
v 64 -39.999992 -32
v 64 40 -40
v -8 40 -40
v 64 -39.999992 -40
v -62 -39.99999199999999 -32
v -64 -37.999992 -37.999996
v -62 -39.999992 -39.999996
v -64 38 -37.999996
v -62 40 -39.999996
v -18 40 -40
v -64 38 -32
v 64 40 -32
v -62 40 -32
v -64 -37.999992 -32
vn 0.7071067811865475 -0.7071067811865475 0.00000000000000031401864874607923
vn 0.8164965809277261 0.4082482904638631 -0.4082482904638631
vn -0.000000007482611533514081 0.707106771926815 -0.7071067904462799
vn 0.40824827771960404 -0.4082483023441053 -0.8164965813597341
vn -0.5054494651244229 -0.8628562094610172 0.0000000000000005419058819142247
vn -0.8920738139399408 -0.4041824444308764 -0.2020912222154378
vn -0.3790871150373198 -0.4837691173529157 -0.7888348371543074
vn -0.933647700847534 0.1601886205085204 -0.3203772410170408
vn -0.4090102666803121 0.851101340935431 -0.3291460302176091
vn -0.00000004065578178521801 0.44721357761141267 -0.8944271999441874
vn -0.8628562094610167 0.5054494651244235 0
vn 0.31622776601683794 0.9486832980505138 0
vn -0.3826834323650898 0.9238795325112867 0
vn -0.9675382212353981 -0.2527247325622123 0
f 12//12 1//1 2//2
f 4//4 3//3 2//2
f 7//7 5//5 6//6
f 9//9 7//7 8//8
f 9//9 3//3 10//10
f 3//3 4//4 7//7
f 10//10 7//7 9//9
f 7//7 10//10 3//3
f 8//8 7//7 6//6
f 4//4 1//1 7//7
f 14//14 8//8 6//6
f 4//4 2//2 1//1
f 13//13 12//12 9//9
f 3//3 12//12 2//2
f 9//9 12//12 3//3
f 1//1 5//5 7//7
f 11//11 13//13 9//9
f 11//11 9//9 8//8
f 5//5 14//14 6//6
f 14//14 11//11 8//8
